<?xml version="1.0" encoding="utf-8"?>
<!-- Generator: Adobe Illustrator 18.0.0, SVG Export Plug-In . SVG Version: 6.00 Build 0)  -->
<!DOCTYPE svg PUBLIC "-//W3C//DTD SVG 1.1//EN" "http://www.w3.org/Graphics/SVG/1.1/DTD/svg11.dtd">
<svg version="1.1" id="Layer_1" xmlns="http://www.w3.org/2000/svg" xmlns:xlink="http://www.w3.org/1999/xlink" x="0px" y="0px"
	 viewBox="0 0 1304.5 224.4" enable-background="new 0 0 1304.5 224.4" xml:space="preserve">
<g>
	<g>
		<path fill="#0BA3D1" d="M668.2,59.5c20.9,0,38.4,19,43.2,44.7H625C629.9,78.4,647.4,59.5,668.2,59.5L668.2,59.5z M612.3,60.1
			c-61.6,54.6-93.4,121.9-70.7,150.4c13.5,17.1,43.7,16.5,78.9,1.3c14.1,7.4,30.4,11.4,47.7,11.4c47.2,0,87.1-31.2,99.8-74.3h-61.2
			c-7.6,17.7-22.1,29.7-38.6,29.7c-20.9,0-38.4-19-43.2-44.7h146.4c0.6-4.9,1.1-9.9,1.1-15c0-15.6-3.4-30.4-9.7-43.9
			c11.6-25.9,13.3-48.7,2.3-62.4c-14.6-18.4-48.3-16-86.9,2.7c-3.4-0.4-6.5-0.6-9.9-0.6c-50,0-91.5,35.2-101.9,82.1
			c13.5-14.1,41.3-36.3,55.3-44.7C618.7,54.6,615.5,57.3,612.3,60.1L612.3,60.1z M761.3,71.9c-11.8-23.2-32.1-41.4-56.5-50.6
			c24.3-8.6,44.1-7.8,54.2,5.1C767.4,36.7,767.6,52.9,761.3,71.9L761.3,71.9z M566.2,140c6.1,30.4,25.5,55.9,51.9,70.2
			c-27.4,9.9-50.2,8.9-61.2-4.9C545.5,191.1,550.1,167,566.2,140L566.2,140z"/>
	</g>
	<g opacity="0.35">
		<path fill="#1D7E99" d="M385,13.6c56.3,0,102,45.7,102,102c0,56.3-45.7,102-102,102c-56.3,0-102-45.7-102-102
			C283,59.3,328.6,13.6,385,13.6z"/>
		<path fill="#EB8840" d="M402.4,222.9c51.8-8.4,91.4-53.1,91.4-107.3l-1,1.2c1.5-10.3,1.3-19.5-0.9-27.5c-0.8,5.9-1.6,9.5-2.4,10.9
			c0-0.5-0.1-6.6-2.1-15.3c-0.9-6.3-2.3-12.2-4.2-17.7c0.5,2.5,0.7,4.6,0.9,6.5c-7.9-21.2-27.4-47.3-75.3-46.7
			c0,0,16.9,1.8,24.8,13.8c0,0-8.1-1.9-14.3,1c7.5,3,14,6.1,19.5,9.3l0.5,0.3c1.4,0.9,2.6,1.7,3.9,2.6c10.2,7.2,19.6,17.4,18.9,30.5
			c-2.2-3.5-5.1-5.7-8.9-6.9c4.6,18.1,5.1,33,1.3,44.8c-2.6-7.8-4.9-12.6-7-14.2c2.9,24.3-1,42.2-11.8,53.9c2.1-7.1,2.9-13,2.4-17.6
			c-12.7,19.2-27.1,29.1-43.4,29.7c-6.4-0.1-12.4-1-18.1-2.9c-8.4-2.8-15.9-7.6-22.6-14.5c10.5,0.9,20.1-0.9,28.5-5.2l13.8-9.1
			l-0.1,0c1.8-0.7,3.5-0.6,5.1,0.1c3.4-0.5,4.6-2.3,3.4-5.3c-1.6-2.3-4.1-4.3-7.3-6.2c-6.9-3.6-14.1-3-21.7,1.8
			c-7.2,4.1-14.1,3.9-20.8-0.4c-4.4-3-8.7-7.1-12.8-12.2l-1.6-2.4c-0.8,5.8,0.1,13.2,2.7,22.4l0.1,0.1l-0.1-0.1
			c-2.6-9.2-3.5-16.6-2.7-22.4v-0.1c0.2-5.1,2.3-7.8,6.3-8.5l-1.7-0.1l1.7,0.1c4.5,0.4,9.7,1.4,15.5,3.1c1-5.6-0.3-11.5-3.8-17.6
			v-0.1c5.5-5.1,10.3-8.8,14.5-11.2c1.8-1,2.9-2.5,3.3-4.5l0.1-0.1l0.1-0.1L377,79c1.1-1.6,0.7-2.9-1.1-4c-3.8,0.2-7.7-0.1-11.5-0.8
			l-0.1,0.2c-1.6-0.5-3.6-1.9-6-4.3l-6.3-6.2l-1.9-1.5v0.2H350l0.1-0.3l-0.4-0.4l0.5-0.4c0.9-4.7,2.3-8.7,4.4-12.2l0.5-0.4
			c2.1-3.4,6-7.1,11.8-11c-10.8,1.3-20.5,6.2-29.1,14.6c-7.2-2.6-15.7-2.1-25.5,1.7l-1.2,0.9l-0.1,0l1.3-0.9l0.1-0.1
			c-6.2-2.8-10.3-11-12.3-24.2c-7.8,7.8-11.6,21.6-11.4,41.6l-2.2,3.4l-0.6,0.4l-0.1,0.1l0,0l-0.1,0.2c-1.2,1.9-2.8,4.7-4.9,8.5
			c-3,5.3-4,9.8-4.3,13.7l0,0l0,0.1l-0.1,1l0.2-0.3c0,0.9,0,1.8,0.3,2.6l6.4-5.2c-2.3,5.8-3.8,12-4.6,18.6l-0.2,3l-2-2.3
			c0,23.3,7.4,44.9,19.9,62.6l0.4,0.6l0.6,0.7c9,12.3,20.4,22.7,33.7,30.4c9.5,5.6,19.8,9.6,30.7,12l2.3,0.5
			c2.3,0.4,4.6,0.8,6.9,1.1c1.7,0.2,3.4,0.4,5.2,0.6l2.3,0.3l3.3,0l3.6,0.2l2.8-0.1l4.7-0.2c2.8-0.2,5.5-0.5,8.2-0.9L402.4,222.9z
			 M338.4,109L338.4,109z M471.3,90.3l0,0.9L471.3,90.3L471.3,90.3z"/>
	</g>
	<g opacity="0.35">
		<path fill="#0BA3D1" d="M105.1,151.8c18,0,32.7-14.7,32.7-32.7c0-18.2-14.7-32.9-32.7-32.9c-18.2,0-32.9,14.7-32.9,32.9
			C72.2,137.1,86.9,151.8,105.1,151.8L105.1,151.8z"/>
		<path fill="#E0594C" d="M60.4,107.6C65.7,87.7,83.5,73,105.1,73h94.3c-16.9-34.8-52.8-59-94.3-59c-31.3,0-59.2,13.6-78.3,35
			L60.4,107.6z"/>
		<path fill="#35B29B" d="M64.7,141.2L18,60.1c-11.3,16.9-18,37-18,59c0,50.6,35.9,92.8,83.5,102.7l33.8-58.4
			c-3.9,1.1-8.2,1.7-12.3,1.7c-17.1,0-32-9.3-39.8-23.1C65.1,141.8,64.9,141.6,64.7,141.2L64.7,141.2z"/>
		<path fill="#F2AB4C" d="M144.5,142.4l-46.9,81.5c2.4,0.2,4.8,0.2,7.4,0.2C162.9,224,210,177,210,119.1c0-11.5-1.9-22.5-5.2-32.9
			h-67.5c8.4,8.4,13.8,19.9,13.8,32.9C151,127.5,148.6,135.7,144.5,142.4L144.5,142.4z"/>
	</g>
	<g opacity="0.35">
		<path fill="#27A6D1" d="M945,13.6c-58.2,0-105.4,47.2-105.4,105.4c0,58.2,47.2,105.4,105.4,105.4c58.2,0,105.4-47.2,105.4-105.4
			C1050.4,60.8,1003.2,13.6,945,13.6z M945,204.7c-47.3,0-85.7-38.3-85.7-85.7c0-47.3,38.3-85.7,85.7-85.7
			c47.3,0,85.7,38.3,85.7,85.7C1030.7,166.3,992.3,204.7,945,204.7z"/>
		<path fill="#E2584C" d="M999.8,64.2L959,133L931,105L999.8,64.2z"/>
		<path fill="#E4E6E6" d="M890.2,173.8L959,133L931,105L890.2,173.8z"/>
	</g>
	<g opacity="0.35">
		<path fill="#DB564F" d="M1210.8,32.1c28.6,0,40.2,38.9,40.2,87c0,48-11.6,86.8-40.2,86.8c-28.6,0-40.2-38.9-40.2-86.8
			C1170.6,70.9,1182.2,32.1,1210.8,32.1L1210.8,32.1z M1304.5,119.1c0-66.9-40.2-107.1-93.7-107.1c-53.5,0-93.7,40.2-93.7,107.1
			c0,66.7,40.2,106.9,93.7,106.9C1264.3,226.1,1304.5,185.9,1304.5,119.1L1304.5,119.1z"/>
	</g>
</g>
</svg>
