<?xml version="1.0" encoding="iso-8859-1"?>
<!-- Generator: Adobe Illustrator 18.1.1, SVG Export Plug-In . SVG Version: 6.00 Build 0)  -->
<svg version="1.1" id="Capa_1" xmlns="http://www.w3.org/2000/svg" xmlns:xlink="http://www.w3.org/1999/xlink" x="0px" y="0px"
	 viewBox="0 0 58.282 58.282" style="enable-background:new 0 0 58.282 58.282;" xml:space="preserve">
<g>
	<path style="fill:#010002;" d="M40.064,18.389H18.267c-1.274,0-2.312,1.037-2.312,2.312v22.067c0,3.952,3.125,6.715,7.597,6.715
		H34.78c4.473,0,7.597-2.763,7.597-6.715V20.701C42.375,19.426,41.338,18.389,40.064,18.389z M41.274,42.768
		c0,3.877-3.261,5.613-6.495,5.613H23.551c-3.232,0-6.495-1.736-6.495-5.613V20.701c0-0.668,0.544-1.212,1.211-1.212h21.797
		c0.666,0,1.21,0.544,1.21,1.212C41.274,20.701,41.274,42.768,41.274,42.768z M36.589,20.125H21.991
		c-0.999,0-1.812,0.812-1.812,1.812v0.202c0,0.998,0.813,1.811,1.812,1.811H36.59c0.999,0,1.812-0.813,1.812-1.811v-0.202
		C38.402,20.938,37.588,20.125,36.589,20.125z M37.194,22.14c0,0.332-0.271,0.603-0.604,0.603H21.991
		c-0.334,0-0.604-0.271-0.604-0.603v-0.202c0-0.334,0.271-0.604,0.604-0.604H36.59c0.334,0,0.604,0.27,0.604,0.604V22.14z
		 M36.589,24.856H21.991c-0.999,0-1.812,0.812-1.812,1.812v0.202c0,0.999,0.813,1.812,1.812,1.812H36.59
		c0.999,0,1.812-0.813,1.812-1.812v-0.202C38.402,25.668,37.588,24.856,36.589,24.856z M37.194,26.871
		c0,0.333-0.271,0.603-0.604,0.603H21.991c-0.334,0-0.604-0.27-0.604-0.603v-0.202c0-0.332,0.271-0.603,0.604-0.603H36.59
		c0.334,0,0.604,0.271,0.604,0.603V26.871z M36.589,29.488H21.991c-0.999,0-1.812,0.812-1.812,1.812v0.201
		c0,0.999,0.813,1.812,1.812,1.812H36.59c0.999,0,1.812-0.812,1.812-1.812V31.3C38.402,30.3,37.588,29.488,36.589,29.488z
		 M37.194,31.501c0,0.333-0.271,0.605-0.604,0.605H21.991c-0.334,0-0.604-0.272-0.604-0.605V31.3c0-0.334,0.271-0.605,0.604-0.605
		H36.59c0.334,0,0.604,0.271,0.604,0.605V31.501z M30.744,34.094h-2.147c-0.951,0-1.724,0.774-1.724,1.724v3.689
		c0,0.951,0.772,1.725,1.724,1.725h2.147c0.951,0,1.724-0.774,1.724-1.725v-3.689C32.467,34.869,31.695,34.094,30.744,34.094z
		 M31.259,39.507c0,0.284-0.231,0.517-0.516,0.517h-2.147c-0.284,0-0.517-0.233-0.517-0.517v-3.689c0-0.284,0.232-0.516,0.517-0.516
		h2.147c0.284,0,0.516,0.231,0.516,0.516V39.507z M24.258,41.935h-1.959c-0.951,0-1.724,0.772-1.724,1.723v2.054
		c0,0.952,0.772,1.725,1.724,1.725h1.959c0.951,0,1.726-0.772,1.726-1.725v-2.054C25.984,42.707,25.209,41.935,24.258,41.935z
		 M24.775,45.711c0,0.284-0.231,0.516-0.517,0.516h-1.959c-0.284,0-0.516-0.231-0.516-0.516v-2.054c0-0.283,0.232-0.515,0.516-0.515
		h1.959c0.285,0,0.517,0.231,0.517,0.515V45.711z M30.744,41.935h-1.959c-0.951,0-1.725,0.772-1.725,1.723v2.054
		c0,0.952,0.773,1.725,1.725,1.725h1.959c0.951,0,1.724-0.772,1.724-1.725v-2.054C32.467,42.707,31.695,41.935,30.744,41.935z
		 M31.259,45.711c0,0.284-0.231,0.516-0.516,0.516h-1.959c-0.285,0-0.517-0.231-0.517-0.516v-2.054c0-0.283,0.231-0.515,0.517-0.515
		h1.959c0.284,0,0.516,0.231,0.516,0.515V45.711z M9.068,38.496c0.054,0.078,0.144,0.288,0.144,0.608v9.918
		c0,0.998,0.812,1.812,1.812,1.812h1.509c1.001,0,1.813-0.814,1.813-1.812V20.227c0-1.001-0.812-1.812-1.813-1.812H9.715
		c-0.999,0-1.812,0.812-1.812,1.812v16.461C7.902,37.674,8.397,38.431,9.068,38.496z M9.109,20.227h0.002
		c0-0.333,0.271-0.604,0.603-0.604h2.818c0.334,0,0.606,0.271,0.606,0.604v28.795c0,0.332-0.271,0.604-0.606,0.604h-1.509
		c-0.334,0-0.605-0.271-0.605-0.604v-9.918c0-0.987-0.495-1.744-1.165-1.809c-0.054-0.077-0.144-0.287-0.144-0.607V20.227z
		 M12.539,51.438H9.916c-0.959,0-1.746,0.747-1.808,1.692l-1.213,3.23v0.11c0,1,0.813,1.812,1.813,1.812h5.039
		c0.999,0,1.812-0.812,1.812-1.812v-0.11l-1.212-3.23C14.285,52.185,13.497,51.438,12.539,51.438z M13.747,57.077H8.708
		c-0.302,0-0.554-0.225-0.598-0.514l1.201-3.203v-0.109c0-0.333,0.271-0.604,0.604-0.604h2.623c0.334,0,0.604,0.271,0.604,0.604
		v0.109l1.201,3.203C14.301,56.852,14.049,57.077,13.747,57.077z M45.751,50.834h1.509c1,0,1.812-0.814,1.812-1.812v-9.918
		c0-0.32,0.09-0.53,0.144-0.608c0.671-0.064,1.166-0.821,1.166-1.808V20.227c0-1.001-0.813-1.812-1.812-1.812h-2.818
		c-1.001,0-1.812,0.812-1.812,1.812v28.795C43.939,50.02,44.75,50.834,45.751,50.834z M45.146,20.227
		c0-0.333,0.271-0.604,0.605-0.604h2.818c0.332,0,0.604,0.271,0.604,0.604v16.461c0,0.32-0.09,0.53-0.144,0.607
		c-0.67,0.064-1.165,0.821-1.165,1.809v9.918c0,0.332-0.271,0.604-0.604,0.604h-1.509c-0.334,0-0.605-0.271-0.605-0.604V20.227z
		 M50.176,53.13c-0.062-0.945-0.849-1.692-1.808-1.692h-2.623c-0.959,0-1.746,0.747-1.809,1.692l-1.212,3.23v0.11
		c0,1,0.813,1.812,1.812,1.812h5.039c0.999,0,1.812-0.812,1.812-1.812v-0.11L50.176,53.13z M49.577,57.077h-5.039
		c-0.303,0-0.555-0.225-0.598-0.514l1.201-3.203v-0.109c0-0.333,0.271-0.604,0.604-0.604h2.623c0.334,0,0.604,0.271,0.604,0.604
		v0.109l1.201,3.203C50.13,56.852,49.878,57.077,49.577,57.077z M23.425,2.204c-0.334,0-0.383-0.157-0.102-0.337
		C25.096,0.73,27.083,0,29.167,0c2.082,0,4.07,0.729,5.842,1.867c0.281,0.18,0.231,0.337-0.104,0.337h-0.916
		c-0.334,0-0.844-0.126-1.148-0.263c-1.17-0.528-2.406-0.84-3.674-0.84c-1.269,0-2.506,0.312-3.676,0.84
		c-0.304,0.137-0.814,0.263-1.149,0.263H23.425z M37.067,4.016h-0.425c-0.334,0-0.398,0.176-0.154,0.402
		c2.872,2.653,4.786,6.278,4.786,8.462v1.748c0,0.658-0.531,1.175-1.21,1.175h-0.001v-3.532c0-0.334-0.27-0.604-0.604-0.604
		c-0.335,0-0.604,0.271-0.604,0.604v3.532h-2.114v-3.532c0-0.334-0.271-0.604-0.604-0.604c-0.334,0-0.604,0.271-0.604,0.604v3.532
		h-1.708c0.013-0.068,0.021-0.138,0.021-0.209v-1.258c0-0.667-0.542-1.208-1.208-1.208h-7.249c-0.666,0-1.208,0.541-1.208,1.208
		v1.258c0,0.071,0.009,0.141,0.022,0.209h-1.509v-3.532c0-0.334-0.271-0.604-0.604-0.604s-0.604,0.271-0.604,0.604v3.532h-2.114
		v-3.532c0-0.334-0.271-0.604-0.604-0.604s-0.604,0.271-0.604,0.604v3.52c-0.618-0.052-1.106-0.555-1.106-1.175V12.88
		c0-2.184,1.916-5.809,4.785-8.462c0.246-0.227,0.182-0.402-0.152-0.402h-0.424c-0.334,0-0.798,0.189-1.027,0.432
		c-2.616,2.759-4.283,6.193-4.283,8.433v1.736c0,1.261,1.038,2.287,2.312,2.287h21.797c1.274,0,2.312-1.021,2.312-2.275v-1.748
		c0-2.239-1.666-5.674-4.282-8.433C37.863,4.205,37.4,4.016,37.067,4.016z M32.638,15.594h-7.249v-1.258h7.249V15.594z
		 M25.565,8.446c0,1.775,1.445,3.221,3.222,3.221c1.776,0,3.222-1.445,3.222-3.221s-1.445-3.222-3.222-3.222
		S25.565,6.669,25.565,8.446z M30.801,8.446c0,1.11-0.904,2.015-2.015,2.015c-1.109,0-2.014-0.904-2.014-2.015
		c0-1.11,0.904-2.014,2.014-2.014C29.897,6.432,30.801,7.335,30.801,8.446z"/>
</g>
<g>
</g>
<g>
</g>
<g>
</g>
<g>
</g>
<g>
</g>
<g>
</g>
<g>
</g>
<g>
</g>
<g>
</g>
<g>
</g>
<g>
</g>
<g>
</g>
<g>
</g>
<g>
</g>
<g>
</g>
</svg>
