<?xml version="1.0" encoding="utf-8"?>
<!-- Generator: Adobe Illustrator 18.0.0, SVG Export Plug-In . SVG Version: 6.00 Build 0)  -->
<!DOCTYPE svg PUBLIC "-//W3C//DTD SVG 1.1//EN" "http://www.w3.org/Graphics/SVG/1.1/DTD/svg11.dtd">
<svg version="1.1" id="Layer_1" xmlns="http://www.w3.org/2000/svg" xmlns:xlink="http://www.w3.org/1999/xlink" x="0px" y="0px"
	 viewBox="0 0 1510 369" enable-background="new 0 0 1510 369" xml:space="preserve">
<g>
	<path stroke="#F3E600" stroke-width="9" stroke-miterlimit="10" d="M543,115.9h-78.5c-38.2-1.2-43.9,9.4-16.9,31.7
		c48.2,42.2,71.8,83.2,70.9,123.1c-0.9,39.8-24.5,63.6-70.9,71.4H55.7v-95.9h288.4c42.1,1.2,47.4-10.6,16.1-35.2
		c-51.7-47.6-73.7-91.3-66-131.1c7.7-39.8,32.1-59.8,73.1-59.8H543V115.9z"/>
	<path stroke="#F3E600" stroke-width="9" stroke-miterlimit="10" d="M682.1,20l73.1,247.3l74-247.3h129.1L843.5,342h-171L559.3,20
		H682.1z"/>
	<path stroke="#F3E600" stroke-width="9" stroke-miterlimit="10" d="M1170.6,246.1V181h100.8v161h-142.7c-34.9,0-66.5-6.2-94.8-18.6
		c-28.2-12.4-50.5-31-66.8-55.9c-16.3-24.8-24.4-55.2-24.4-91.2c0-25.3,4.9-47.8,14.6-67.7c9.7-19.8,23.2-36.3,40.5-49.5
		c17.2-13.2,37-23,59.4-29.4c22.4-6.5,46.2-9.7,71.5-9.7h88.3h243v95.9h-289.4c-22.6,0-39.3,0.7-50.2,2c-10.9,1.3-20.5,3.6-29,6.7
		c-8.5,3.1-16,8.5-22.5,16.3c-6.5,7.7-10.3,21.4-11.4,41c0.7,19,4.5,32.6,11.4,40.8c6.8,8.2,15.2,13.6,25,16.3
		c9.8,2.7,19.9,4.5,30.3,5.6C1134.7,245.6,1150.1,246.1,1170.6,246.1z"/>
</g>
</svg>
