<svg xmlns="http://www.w3.org/2000/svg" viewBox="0 0 60.675 60.675"><path d="M22.825 37.846c-2.165.374-7.396 1.302-7.396 1.302-.12.02-.22.086-.285.183-.065.098-.087.217-.062.336l1.084 4.975c.045.207.2.292.375.202 1.37-.706 4.63-2.676 6.76-6.326.26-.447.03-.758-.477-.67zm6.508-15.213c.347-.15.728-.233 1.13-.233.463 0 .9.11 1.29.302.463.227.767.12.776-.398.072-4.31.146-12.105-.19-15.747-.046-.514-.525-.928-1.042-.928h-1.706c-.517 0-.902.416-.876.932.21 4.165.01 11.453-.138 15.632-.018.517.28.643.755.44zm8.87 26.243h1.04c.516 0 .984-.292 1.152-.608.167-.316 0-.703-.458-.944-.553-.294-1.21-.673-1.904-1.136-.43-.285-.766-.116-.766.4v1.354c.002.516.42.934.935.934zm-10.34-.935c0 .518.42.935.936.935h.135c.517 0 .935-.418.935-.934v-6.587c0-.26.21-.468.467-.468.26 0 .468.21.468.468v6.588c0 .518.418.935.935.935h.317c.517 0 .935-.418.935-.934V40.65c0-.042.007-.083.02-.12.02-.065.022-.27 0-.463-.016-.126-.023-.245-.023-.35V37.05c0-.398-.214-.976-.456-1.235-.403-.432-.707-1.237-.707-1.875v-2.508c0-.092-.01-.172-.02-.24-.026-.13-.497-.228-1.014-.228h-.723c-.517 0-.986.097-1.012.23-.013.066-.022.146-.022.238v2.508c0 .638-.304 1.443-.706 1.874-.242.26-.455.838-.455 1.237v2.664c0 .106-.01.227-.023.354-.024.194-.024.397-.003.46.01.038.018.077.018.12v7.293h-.004zm6.996.936h.54c.516 0 .934-.418.934-.934v-2.084c0-.517-.323-1.2-.7-1.555-.397-.374-.78-.775-1.138-1.203-.332-.396-.57-.322-.57.194v4.647c-.002.518.417.936.933.936zm-16.75-14.47c2.104 0 4.852-.85 6.686-2.064.266-.176.458-.665.373-.95-.37-1.234-1.486-3.318-4.832-3.406-.202 0-5.3.07-5.438 4.082-.023.643.143 1.138.507 1.514.52.54 1.455.824 2.703.824zm7.418 14.47h.467c.517 0 .934-.418.934-.934V43.29c0-.517-.242-.592-.577-.2-.333.39-.688.758-1.057 1.1-.377.352-.703 1.033-.703 1.55v2.202c0 .516.42.934.935.934zm1.29-24.407c.408.316.73.187.75-.33.13-3.31.46-12.77.215-17.578-.025-.516-.478-.933-.994-.933H22.8c-4.63 0-9.934 3.184-12.307 7.265-.26.446-.48 1.244-.536 1.757l-.926 8.396c-.056.513-.238 1.323-.405 1.812-.482 1.404-1.486 4.356-2.65 7.914-.16.49-.033.56.29.157 3.333-4.118 9.03-9.96 14.785-10.315 2.102-.13 4.033.5 5.77 1.854zm-14.813 3.76c-2.89 2.568-5.297 5.595-6.67 7.46-.307.417-.674 1.157-.83 1.65C2.737 42.923.945 48.974.197 52.727c-.102.507-.224 1.125-.19 1.393.03.27.476.367.976.246 1.15-.277 3.33-.735 6.13-1.014.513-.05 1.013-.493 1.115-1 .974-4.83 3.364-16.9 4.354-23.806.074-.51-.192-.66-.577-.316zm18.457-.885c1.105 0 2.004-.9 2.004-2.006s-.9-2.006-2.004-2.006c-1.1 0-1.996.89-2.004 1.99.002 1.124.9 2.02 2.004 2.02zm9.663.935c-3.332.087-4.448 2.173-4.815 3.407-.085.285.107.773.373.95 1.833 1.215 4.582 2.063 6.685 2.063 1.247 0 2.182-.285 2.704-.826.363-.376.53-.87.507-1.513-.14-4.01-5.237-4.08-5.455-4.08zm6.447-2.235c-2.072-1.452-4.312-2.504-6.548-2.638-2.377-.14-4.538.79-6.444 2.77-.357.373-.837 1.07-1.228 1.404-.51.436-1.17.7-1.89.7-.727 0-1.387-.268-1.898-.707-.392-.336-.87-1.033-1.23-1.403-1.832-1.883-3.928-2.765-6.225-2.623-2.232.138-4.486 1.202-6.595 2.685-.423.296-.804.967-.872 1.48-.88 6.607-3.39 19.32-4.446 24.57-.1.505.233.89.748.868 2.047-.085 4.3-.048 6.66.215.288.032.467.225.457.338-.024.31.085.588.31.785.27.24.674.322 1.105.23 1.715-.357 6.268-1.187 11.717-1.187h.143c5.567.016 10.61 1.04 12.52 1.48.105.024.208.036.31.036.27 0 .53-.083.74-.24.288-.22.46-.553.478-.94l.02-.422c.017-.29.278-.575.563-.607 2.366-.27 4.572-.333 6.54-.282.516.013.842-.376.73-.88-1.25-5.678-3.918-18.056-4.785-24.153-.074-.51-.46-1.182-.88-1.477zM20.35 27.05c3.947.104 5.273 2.598 5.714 4.074.2.677-.143 1.59-.753 1.995-2 1.328-4.894 2.22-7.2 2.22-1.507 0-2.674-.384-3.376-1.11-.54-.56-.8-1.3-.77-2.196.137-3.93 4.236-4.98 6.385-4.984zM16.4 45.814c-.56 0-1.02-.393-1.146-.975l-1.084-4.976c-.08-.37-.01-.745.196-1.055.208-.31.527-.518.898-.583l8.288-1.47c.484-.086.848.066 1.04.377.098.16.227.497-.013.976-2.212 4.427-6.06 6.762-7.61 7.56-.182.095-.373.144-.568.144zm24.14 4.85c-.293-.424-.782-.853-1.3-.853H22.328c-.517 0-1.006.43-1.298.855-.423.612-1.13 1.015-1.927 1.015-1.29 0-2.337-1.048-2.337-2.336 0-.924.54-1.72 1.32-2.095.464-.226 1.288-.384 1.757-.6 1.605-.745 4.98-2.57 6.72-5.422.224-.368.374-1.08.374-1.514V37.05c0-.637.304-1.443.707-1.874.242-.26.455-.837.455-1.236v-2.508c0-.812.397-1.402.946-1.402h2.765c.55 0 .948.59.948 1.402v2.508c0 .4.213.977.455 1.237.403.43.707 1.236.707 1.874v2.664c0 .433.15 1.146.374 1.516 1.7 2.814 4.94 4.7 6.572 5.516.462.23 1.007.337 1.216.298.125-.024.252-.037.384-.037 1.288 0 2.336 1.048 2.336 2.337 0 1.288-1.048 2.336-2.336 2.336-.8 0-1.503-.403-1.925-1.015zm5.452-10.505l-1.084 4.975c-.126.582-.587.975-1.147.975-.193 0-.385-.05-.567-.143-1.552-.8-5.4-3.134-7.61-7.562-.24-.48-.112-.816-.015-.976.194-.312.557-.463 1.043-.38l8.285 1.472c.373.065.69.272.9.582.207.31.277.685.196 1.055zm-.25-5.635c-.703.727-1.87 1.11-3.377 1.11-2.306 0-5.198-.893-7.2-2.22-.61-.406-.955-1.32-.753-1.996.44-1.478 1.765-3.973 5.7-4.075 2.162.004 6.263 1.052 6.398 4.983.032.898-.227 1.636-.77 2.197zm14.732 17.33c-.73-3.665-2.47-9.522-4.207-14.995-.157-.492-.522-1.234-.825-1.652-1.15-1.586-3.473-4.574-6.354-7.15-.385-.344-.647-.197-.567.312 1 6.435 3.525 18.106 4.685 23.365.11.504.618.938 1.132.982 2.452.21 4.32.562 5.353.792.503.11.947.006.978-.262.03-.268-.094-.887-.194-1.393zM37.332 38.132c-.508-.09-.735.214-.477.66 2.135 3.667 5.396 5.638 6.768 6.344.177.09.33.003.375-.2l1.084-4.977c.025-.12.004-.24-.06-.336-.066-.097-.167-.16-.287-.183l-7.403-1.308zm5.134 9.81c.774 0 1.402.627 1.402 1.4s-.628 1.403-1.402 1.403-1.402-.628-1.402-1.402.63-1.402 1.402-1.402zm-8.35-23.5c1.798-1.43 3.79-2.095 5.965-1.968 5.74.343 11.3 6.078 14.405 9.923.325.402.45.334.29-.155C53.558 28.54 52.5 25.45 52 24.002c-.17-.487-.382-1.294-.476-1.8l-1.45-7.925c-.094-.508-.378-1.283-.673-1.707-2.724-3.9-8.305-6.94-12.935-6.94H34.11c-.518 0-.88.414-.834.928.393 4.422.228 14.108.152 17.56-.01.516.283.645.687.324zm-15.012 23.5c.774 0 1.402.627 1.402 1.4s-.628 1.403-1.402 1.403-1.402-.628-1.402-1.402.628-1.402 1.402-1.402zm4.555 0v-1.484c0-.517-.342-.69-.775-.41-.578.374-1.134.69-1.63.95-.456.24-.482.64-.207 1.054.275.413.763.824 1.28.824h.396c.517 0 .935-.418.935-.935z" fill="#010002"/></svg>