<svg xmlns="http://www.w3.org/2000/svg" viewBox="0 0 648 432"><path d="M398.1 175.5s4.4-2.3 7-4.1c0 0 19.1 4.8 19.8-9.1 0 0 58.3-10 35-35.8 0 0 2.9-3.4 2.6-7.5 0 0 8.8.9 13.4-5.9s18.5-23.5 38.9-20.5c0 0-13.1-13.6-43.1-9s-31.4 1.5-31.4 1.5-5-20.5-33.5-41.3-58.8 3-70.1 16.3c0 0-25.5-11.8-47.3-43.8 0 0-11.9 32.8 8.1 67.9 0 0-5 3.4-13-7.3 0 0-2.9 12.8 7.1 19 0 0-7.6.8-16.3-7 0 0-1 11.5 10.5 29.8 0 0-11.4-2.8-19.4-3.9 0 0-1.9 12.9-11 22s-35 2.4-35 2.4 16 20 14.3 68.3c0 0-18.5 59-25 122 0 0-6.3 1.5-20-3 0 0 2.5 23.3-4.8 32 0 0-11.3-.5-15.3-3 0 0-7.5 19-37.3 34 0 0 121 24.3 160.8 4.5 0 0 47.3 3.8 71.8.3v-4l30.5-.3-.3 25.8 17.9.2s-1.3-23.5 1-25.5c0 0 19.5.5 21 1.5 0 0-15.3-24.5-15.3-31 0 0 6.5-26 18-41.5l-5.8-9.8s14.8 9.8 16.5 13.3c0 0 46.8-42.3 30.5-112.3 0 0-1.5-6.5 2.3-12 0 0-18.3-4-27-21.8 0 0-8 3.5-16.5 10.3l-4.3-4.5s-11 12.3-22.5 12.3c0 0-.5 4 .5 5.8 0 0-9.3-4-11.3-8.3 0 0 4-6 5.5-6.5.2 0-7.8-9.2-7.5-10.5z"/><path fill="#E4E7D6" d="M391.6 322.1s-6 10.5-8.1 12.4c0 0-11.3-1.8-29-9.8 0 0-21.9 44.4-53.6 65.6 0 0 23.4 5.1 59.5 2.4 0 0 .3-38.2 3.4-41.3 0 0-.3 31.1 1.2 34.8l26.4.3c.1.2-.2-63.6.2-64.4zM395.1 314.2l-.9 72.5 1.8.1c1.6-26.2 6.8-35.6 6.8-35.6l6-11.7s-6.2-21-6.7-40.5l-7 15.2zM404.4 290.6l1.2-1.3s3.8 12.4 9.9 22.9c0 0-1.7 14.8-4.7 20.5 0 0-7.7-27.8-6.4-42.1z"/><path fill="#1D1512" d="M401.1 263.9s12.9 41.4 18.1 49.4c0 0-5.4 23.1-7.9 28.5-2.4 5.4-9.7 14-11.4 34.5 0 0 12.5-35.7 24-51.4 0 0-3.9-16.6-3.7-20.4.2-3.8-1.6-20.4-8.9-36.9 0 0-1.1-2 .2-4s23-26.7 49.9-16.2c0 0 .1 5.3-1.7 8.3-1.8 3-5.3 13.5-5.3 13.5s4.8 5.1 6 8.4c0 0-1.4-19.5 11.8-32.7 0 0-5.1-7.8-15-7.9-9.9-.1-35.2 7.4-40.5 7.3 0 0-7.7 14.1-15.6 19.6z"/><path fill="#E4E7D6" d="M428.9 253s-6 14.3-5 26.9c0 0-4-14-4.8-21.1 0 0 5.8-4.6 9.8-5.8z"/><path fill="#453825" d="M417.8 259.7s-4.5 3.8-4.8 5.4c-.2 1.7 7.1 18.4 7.5 20.9.4 2.4 2 28.6 5.7 37.3l.2 1.6c-7.6 8.9-16.7 32.2-16.7 32.2-10.8 19.5-11 36-11 36v20.3l10.3.5s-2.8-50 24.5-92c0 0-10-20.3-9-37 0-.1-6.4-15.1-6.7-25.2z"/><path fill="#E4E7D6" d="M437.8 249s-6 43.3 9.8 67c0 0-14.3-11-17.5-12.3 0 0-10.3-27 4-53l3.7-1.7z"/><path fill="#AAAE9F" d="M440.8 248.5s9.3-2.3 12.3-.5-4.8 14.8-10.8 16.3c0 0 11.5 6.5 19.5 21.3 0 0 0-25 16.3-44.5 0 0-3.5-10.5-8.3-13.3 0 0 4.8-4.8 1.5-9.3 0 0 4.5-4.5 4.8-6.3 0 0 16 54.5-26.3 104.3 0 0-11.8-18.2-9-68z"/><path fill="#443D2A" d="M455.9 247.5s3.3 1.7-.7 8.6c-4 6.9-7.7 8-7.7 8s4.4 3.4 4.9 4.9c0 0 6.7-15.7 7.6-20.3l-4.1-1.2zM445.5 224.8s19.2.6 23.4 5.8c4.2 5.3 7.1 9.8 7.1 9.8s-1.5 3.6-3.8 1.5-8.9-9.1-23.6-6c-14.7 3.1-30.8 6.3-30.8 6.3s1.8-4.4 1.8-5.1c.1 0 19.4 2.3 25.9-12.3z"/><path fill="#201816" d="M456.1 223.8s1.9-4.1 2.6-4.2l7.3 7.1-9.9-2.9zM454.5 223.8l-7.4-.9 3.4-5.8c0-.1 2.1 5.1 4 6.7z"/><path fill="#A2B98D" d="M459 216.1l9.2 9.5s2.9-1.9 1.5-5.9c0 0-3.9 2.5-9.2-4.3l-1.5.7z"/><path fill="#A2B98D" d="M455.4 220.3s2.3-6.8 4.8-8c0 0 4.6 5.7 6.9 4.7 2.3-1 8.8-7.4 9.8-17.2 0 0-7.1-1.6-11.5-6.4 0 0-5.2 7.1-12.3 9.2-.1 0-1 15.2 2.3 17.7zM449.7 205.1s.1 8.7.8 9.7c0 0-3.1.3-4.4 3.8-1.3 3.5-12.4 26.7-42.1 8.1 0 0 7.7-16.3 10.4-18.5l6.4 6.1s1.1-5.8 1.1-8.2c0 0 6 .6 11.6-4.1 0 0 1.1 6.7 6.3 10.9 0 0 4.8-6.9 5.1-8.7-.1.1 2.7 1.6 4.8.9z"/><path fill="#A2B98D" d="M439.8 208.3s-5.5-8.5-2.8-16.8l15.7-10.4s7.8 9.9 10.2 10.9c0 0-6.9 6.8-11.1 8.5 0 0-2.1.7-2.1 3.1 0 0-3.7-.8-4.9-2.8 0 0-4.2 7.5-5 7.5zM435.6 189.1s-2.7 6-2 10.3c0 0-5.3 5.1-12.5 3 0 0-2 4.7-1.6 7.6 0 0-6.1-4.9-6.5-12.8 0 0 13.6-2.3 18.9-10.3 0 0 1.6-1.1 3.7 2.2z"/><path fill="#E4E7D6" d="M147.2 386.2s89.7 16.3 122.3 10.7c32.7-5.7 50-19.3 79.7-74.3 0 0-78-26.3-67-131 0 0 4 78 39.3 104s62.3 33.7 62.3 33.7-11.3-68.7 26.7-119.7c0 0-27.7 1-41.7-6.3 0 0-6.3 23-33.7 32.3-27.3 9.3-35-10-22.3-16.3 0 0-7 10.7.7 13 7.7 2.3 30.7 5.7 48.7-25.3 0 0-21-19-29.7-32.3-8.7-13.3-29.7-33-53-26s-39.3 31-65 183c0 0 49.7 2.3 88-20 0 0-38 33-108 20.3 0 0 .7 22-5.7 27 0 0 33 8 87.3-14 0 0-38.3 26.3-105.7 16 .1-.2-5.2 14.5-23.2 25.2z"/><path fill="#AAAE9F" d="M416.2 236.6s-7.1 14.3-19 26.3l5.6 19.2s-8.1 32.3-17.4 44.6c0 0-1.9-66.6 17-97.1-.1-.1 6.3 6.5 13.8 7z"/><path fill="#E4E7D6" d="M398.6 194.7s5.8 7.4 14 9.6c0 0-12.1 1.9-18.5 1 .1 0 1-7 4.5-10.6zM402 185.8s-9.3 11.8-10.8 19.2c0 0-4.4.9-6.8-1 0 0 1-20.4.1-22.4l11.7-5.3c.1-.1 2.6 6.8 5.8 9.5z"/><path fill="#86644B" d="M381.9 181.8s1.3 19.6.4 21.7c0 0-11.7-2.1-15.5-4.6 0 0-1.5 2.7-1.6 4 0 0-7.7-2.5-14.8-10l-.6-4.7c.1 0 19.6-1.4 32.1-6.4zM349.5 186.4s12.5-2.2 14.3-3.4c0 0-14.8-16.8-20.8-19.8 0 0 5.6 14 6.5 23.2z"/><path fill="#E4E7D6" d="M226.8 144.2s13.1 20.8 11.4 50.5c0 0 2.1-4 5.8-13.9 3.7-9.9 18.7-37.2 47.4-37.1 28.6.1 47.2 34.5 47.2 34.5s-10-36.6-52.6-42.5c0 0-11.7-1.2-25.1 3.7-13.5 4.9-25.7 6.7-34.1 4.8z"/><path fill="#E4E7D6" d="M260 135.8s8.7-8.1 9.2-17.4c0 0 36 6.5 53.6 20.2s22.7 42.4 23.5 49l-4.6-5c-.1 0-12.2-63.2-81.7-46.8z"/><path fill="#A2B98D" d="M290.6 47.6s12.5 51.7 57.1 62c0 0 6.6-21.7-20.4-40.4S293.5 28 293.5 28s13.6 17 30.1 28.3c16.5 11.4 33.4 25.2 34.7 35.1 0 0 2.2-10.5 15.2-12.8 0 0-7.7-13-30.6-14.9 0 0-2.1-.6-2.7-2.2 0 0 21.7-21.8 40.7-21.3 19 .6 39.3 19 48.9 32.3 0 0 2.8 12.1.7 14.2 0 0 3-5.9 2.8-9.4 0 0 6.1 8.6 6.8 13.3 0 0 1-2.1.7-3.4 0 0 13.7 3.5 28.6.1 14.9-3.4 28.3-2.4 32.6.9 0 0-15.9-2.1-27.9 3.5-12 5.6-18.5 7.4-19.8 7.2 0 0-8.1-5.8-12.8-5.8 0 0 12.3 6.1 14.9 11.8 0 0-6.3 2.7-26.1 1.9 0 0 .7-5.8 9.7-9.3 0 0-9.6-1.5-11.8 9.3 0 0-1.9.4-1.2-1.2s5-12.7-4.3-20.1c0 0 .7-17.3-15.8-21.1 0 0 1.9-10.5-11.2-15.4 0 0 10.6 8.9 8.9 16.8 0 0 15.2 2.7 15.6 20.1 0 0 7.7 3.4 5.5 19.5 0 0-3.5.6-17.3-6.5s-26.3-15.9-37.2-7.2c0 0 8.6-1.6 10.9-1.2 0 0-4.9 4-6.5 10.5 0 0-8.4-2.1-13.9-.3 0 0 7.7.4 9.3 2.7 0 0-7.2 3-9.2 2.7 0 0 6.6.6 13-2.1 0 0 .6 26.1 32.5 18 0 0-15.9 23.6-57.3 33.8 0 0 23.6.9 46.4-17.9 0 0 15.4-2.1 17.9.1 0 0-1.5 3.4-3 4 0 0 3.8-.9 5.9-3.1 0 0 4 1.3 5.5 3l-6.3 6.1s6.9-2.7 7.7-4.3c0 0 3 2.5 3.4 3.4 0 0 5-3 11.1-2.7 0 0-1.2 5.3-16.1 12.8l-2.5-2.7s4.4 13.7-9 13.9c-13.4.1-16.2-5.2-16.2-5.2s3.7 6.1 5.3 6.5c0 0-16.1 7.7-32.9 12.8 0 0-4-7.1-5.3-7.5 0 0 19.5-5.6 23.2-10 0 0-23.6 8.1-24.5 8 0 0-3-2.7-4.4-3.7 0 0 12.4-7.2 13.6-7.5 0 0-12.8 3.2-15.9 5.2 0 0-9-7.5-12.4-9.3 0 0-6.6-18.9-27.2-27.9 0 0-.9-1.3 1.3-2.8 2.2-1.5 10.8-9.7 10.8-13.3 0 0 8.7 4.9 10.5 4.7 0 .2-43.5-23.2-46.3-70.8z"/><path d="M305.9 52.8c-2.2 2.5-4.4 7.5-4.4 17.2.5.8.9 1.6 1.4 2.4.6-10.7 2.6-15.6 4.5-17.9-.5-.5-1-1.1-1.5-1.7z"/><path fill="#717344" d="M320.7 66.3c-1.8-1.4-3.6-2.8-5.5-4.3-2.9-2.3-5.5-4.8-7.8-7.4-2 2.2-4 7.2-4.5 17.9 3.7 6.2 7.8 11.3 11.8 15.6-1.4-13.8 2.9-19.5 6-21.8zM290 22.8c-1.5 8.8-.8 13.8-.8 13.8 2.8 13.6 7.2 24.6 12.2 33.6 0-9.7 2.3-14.7 4.4-17.2C294.4 39 290 22.8 290 22.8zM335.6 79.4c-8.5.6-8.8 12.1-8.1 19.5 10.6 7.2 19 8.9 19 8.9.6-12.2-3.7-20.7-10.9-28.4z"/><path d="M335.6 79.4c-.5-.5-1-1-1.5-1.6-2.9.6-6 2-7.2 5.1-1.4 3.6-1.4 9.9-1.2 14.7.6.4 1.2.9 1.8 1.3-.7-7.4-.4-19 8.1-19.5zM323 68.1c-.7-.6-1.5-1.2-2.2-1.8-3.2 2.3-7.4 7.9-6 21.8.9 1 1.9 1.9 2.8 2.8-2.1-13 1.8-19.6 5.4-22.8z"/><path fill="#717344" d="M326.8 82.9c1.2-3.1 4.3-4.5 7.2-5.1-3.2-3.3-7-6.4-11.1-9.7-3.6 3.2-7.5 9.8-5.4 22.8 2.7 2.6 5.5 4.8 8.1 6.7-.2-4.8-.2-11.1 1.2-14.7z"/><path fill="#C1C8B8" d="M346.8 66.5s11 11.9 11.6 18.9c0 0 3.4-6.1 12.1-7.9 0 0-9.9-9.9-23.7-11zM286 81.6s5.4 7.4 12.8 5.4c0 0 7.4 11.9 13.9 16.9 0 0-14.4 10.6-31.6-1.8 0 0-2.3-5.3-1.9-6.8 0 0 13.5 7 20.4 1.9-.1.1-12.6-4.3-13.6-15.6z"/><path fill="#C1C8B8" d="M314.4 105.1s3.5 3.1 4.4 3.5c0 0-14.1 12.6-31.1 3.9 0 0-3-.9-5.1-6.8-.1.1 18.5 10.8 31.8-.6z"/><path fill="#C1C8B8" d="M320.1 109.9l4.4 3.1s-4.3 7.4-13.8 14.6c0 0-15.1-6.1-19.5-6.9 0 0-3.9-5.1-3.9-6.4 0 0 6.6 3.3 12.8 3.5s16-3.5 20-7.9z"/><path d="M396.1 81s17.6 2.6 24.3 21.4c0 0 1-20.6-24.3-21.4zM372.9 47.6s11.5 1.9 12.3 12.8c0 0 9.6.8 12.6 11.6 0 0 1.5-9.1-9.8-13.5 0 0-2-11.7-15.1-10.9zM469.4 96.7c-.8.4-1.7.7-2.5 1.1.6 3.8 0 9.4-6.3 13.9l.6 1.5c8.7-4.8 9.1-11.9 8.2-16.5z"/><path fill="#717344" d="M466.9 97.8c-4.8 2-9.3 3.7-9.3 3.7 3.5 4.1-.3 5.9-.3 5.9 1.4 1.1 2.4 2.7 3.2 4.3 6.4-4.6 7-10.1 6.4-13.9zM478.4 92.6c1 2.5 2 6.3 1.6 11.3 8-12 26.1-13.4 26.1-13.4-8.5-2-21-.4-27.7 2.1z"/><path fill="#717344" d="M476.4 93.4c-.1.1-.3.1-.4.2-1.7.9-4.1 2-6.6 3.1.9 4.6.5 11.7-8.2 16.4.9 2.4 1.2 4.5 1.2 4.5s5.3-1 11.3-6.4c4.5-8.5 4.1-14.3 2.7-17.8z"/><path d="M478.4 92.6c-.7.3-1.4.5-2 .8 1.3 3.5 1.7 9.3-2.8 17.9 2.1-1.9 4.2-4.3 6.3-7.3.5-5.1-.5-8.9-1.5-11.4z"/><path fill="#738756" d="M409.1 101.6s-16.5-9.4-24.3-10.6c0 0-5.5 4.5-7 10.6.1 0 15-3.1 31.3 0zM377.6 103.9s15.9 10 37.9 9c0 0 .1 2-1.1 2.3s-32.3 4.3-36.8-11.3z"/><path fill="#738756" d="M379 109.8s8.6 10 33.6 7.5c0 0-5.6 5-16 4.8s-16.8-9.1-17.6-12.3z"/><path fill="#FFF" d="M380.4 103c7.2 4.4 15.6 6.6 22.5 7.6-1.7-2.5-2.7-5.7-3.3-8.1-9.2-.3-19.2.5-19.2.5z"/><path fill="#2C2F1E" d="M406.8 103.1c-1.9-.3-4.1-.5-6.3-.6.8 2.5 2 5.8 4.2 8.3 6.8.9 11.8.7 11.8.7.9-.8.9-3.4.9-3.4-9.1 4.7-10.6-5-10.6-5z"/><path d="M399.5 102.5c.6 2.5 1.7 5.6 3.3 8.1l1.8.3c-2.1-2.6-3.4-5.8-4.2-8.3-.3-.1-.6-.1-.9-.1z"/><path fill="#FFF" d="M411.3 103l4.3 2.1s-.8 2.9-3.4 1.9-.9-4-.9-4z"/><path fill="#A2B98D" d="M419.6 106.5l-.5 5.3s6.3-1.1 7.6.9c0 0-7.9-1-8.5 1.6 0 0 3.3 1.5 3.9 2.5 0 0 5.8-2.5 7.4-2.4 0 0-1.4-3.8-1.5-5.1 0 0-7.1-1.4-8.4-2.8z"/><path fill="#738756" d="M430.3 109.3s17.1.5 24.1-1.1c0 0 2.8 1.6 2.9 3.6 0 0-23.5.5-26.8.1 0 0-.6-1.9-.2-2.6z"/><g><path fill="#FFF" d="M448.7 113.6c-6.3-.3-17.5-.5-17.5-.5 5.1 3.9 12.4 6.2 18.3 7.5-1.2-3-1.2-5.3-.8-7z"/><path fill="#2C2F1E" d="M459.3 120.3c-5.9-.4-6.4-6.3-6.4-6.3-.3-.1-1.3-.2-2.8-.3-.4 2-.3 4.7 1.9 7.4 4 .8 6.9 1 6.9 1l.4-1.8z"/><path d="M450.1 113.7c-.4 0-.9-.1-1.4-.1-.4 1.7-.4 4 .8 7 .9.2 1.7.4 2.5.5-2.2-2.7-2.3-5.4-1.9-7.4z"/></g><path fill="#FFF" d="M458.6 113.3s1.4 2.5.6 3.6c0 0-1.5.8-3-2.5.1 0-.6-1.1 2.4-1.1z"/><path fill="#738756" d="M432.6 115.9s12.8 6.6 25.9 7.5c0 0-2 4-4.1 4.3 0 0-10-1.8-12-3.8 0 0-.6-3.5-6.9-3.9 0 0-2.5-2.2-2.9-4.1z"/><path fill="#A2B98D" d="M414.6 117.6s2.9-3.8 6.9.8c0 0 9.8-4.1 12.6 2.5 0 0 6-.1 5.5 3.4s-5.3 1.1-5.5-1c0 0-3.3 3.4-6.1 2.6s-3.5-4-5.8-4.4c.1 0-5.7 2.8-7.6-3.9z"/><path fill="#738756" d="M441.1 125.4s8.5 3.1 11.4 3.3c0 0-1.8 1.9-9.1 1.6 0 0-2.5-3.5-2.3-4.9z"/><path fill="#A2B98D" d="M440.1 142.9s4.8-11.3-1.5-15.1c0 0-3.8-1.1-4.8-2.1 0 0-4.4 3.1-6.8 2.4s-3.9-4.4-4.9-4.5c0 0-5.6 1.9-9.4-4 0 0-4.3 3-5.1 5.4s-6.4 9.1-7.9 10.1c0 0 10.6-.4 12.9.5 0 0-.4-4.8-.6-5.1s3 3.8 3.4 5.5c0 0 3.3.9 4.4 1.8 0 0 .9-7.5-.1-9.1 0 0 2.4 1.1 2.5 10.4 0 0 6.1 4.4 6.4 5.8 0 0 .9-10.5 2-11.5 0 0 .8 9.5.5 10.6 0-.2 4.5-1.6 9-1.1z"/><path fill="#A2B98D" d="M444.3 132.3s9.4-.3 13-3.3c0 0 6 6 2.5 12.3s-21.4 15.4-35.6 19.3l-.6-1.5c-.1-.1 25.9-9.3 20.7-26.8z"/><path fill="#E4E7D6" d="M418.1 366.6s-4.3 14.7-3.9 21.2c0 0 13.9-.3 15.7.8 0-.1-9.7-15-11.8-22z"/></svg>